# xmcd CD database file generated by Grip 2.95
# 
# Track frame offsets:
#       150
#       2810
#       15032
#       26392
#       41678
#       57186
#       62460
#       77522
#       89487
#       92221
#       103309
#       106504
#       122116
#       125846
#       130843
#       140365
#       144124
#       155421
#       157802
#       162498
#       165519
#       182722
#       193875
#       197333
#       210315
#       223567
#       229110
#       242936
#       248895
#       261463
#       267458
#       280963
#       283673
#       293217
#       295604
#       308092
#       313048
# 
# Disc length: 4358 seconds
# 
# Revision: 3
# Processed by: cddbd v1.5PL3 Copyright (c) Steve Scherf et al.
# Submitted via: Grip 2.95
# 
DISCID=0d110425
DTITLE=Hank Williams III - Houston 2004-01-17 Disc 1
DYEAR=1900
DGENRE=
TTITLE0=Introduction
TTITLE1=Straight To Hell
TTITLE2=Thrown Out of Every Bar
TTITLE3=Little Bit of Smoke and A Whole Lotta Wine
TTITLE4=I Don't Know
TTITLE5="hats off to Texas"
TTITLE6=Trashville
TTITLE7=87 Southbound
TTITLE8="tuning/talk"
TTITLE9=Even Though I'm Broke
TTITLE10="tuning/talk"
TTITLE11=7 Months, 39 Days
TTITLE12="paying respects"
TTITLE13=Long Haired Redneck
TTITLE14=If You Don't LIke Hank Williams
TTITLE15="..we're touring on Ozfest.."
TTITLE16=I'd Still Want You
TTITLE17="tuning/talk"
TTITLE18=Hoe-down
TTITLE19="band introduction"
TTITLE20=Cocaine Blues
TTITLE21=The Devil Is My Friend
TTITLE22="tuning/talk"
TTITLE23=Country Heroes
TTITLE24=Nighttime Ramblin' Man
TTITLE25="..dedicated to Scott H Biram.."
TTITLE26=Wine Spo-dee-odee
TTITLE27="pop-country rant"
TTITLE28=Dick In Dixie
TTITLE29="we appreciate yall comin' out"
TTITLE30=Life Of Sin
TTITLE31="tuning/talk"
TTITLE32=Go Fuck You
TTITLE33="tuning/talk"
TTITLE34=Hellbilly
TTITLE35="I'm proud to be from the underground"
TTITLE36=White Trash 2
EXTD=
EXTT0=
EXTT1=
EXTT2=
EXTT3=
EXTT4=
EXTT5=
EXTT6=
EXTT7=
EXTT8=
EXTT9=
EXTT10=
EXTT11=
EXTT12=
EXTT13=
EXTT14=
EXTT15=
EXTT16=
EXTT17=
EXTT18=
EXTT19=
EXTT20=
EXTT21=
EXTT22=
EXTT23=
EXTT24=
EXTT25=
EXTT26=
EXTT27=
EXTT28=
EXTT29=
EXTT30=
EXTT31=
EXTT32=
EXTT33=
EXTT34=
EXTT35=
EXTT36=
PLAYORDER=
